<svg version="1.0" xmlns="http://www.w3.org/2000/svg" width="682.667" height="682.667" viewBox="0 0 512 512"><path d="M56.5 96.9c-9 2.2-17.3 9-21.5 17.6-3.3 6.9-3.4 19.9-.2 26.5 3.4 7.1 7.5 11.3 14.4 15.1l6.3 3.4h401l5-2.5c6.4-3.1 12.4-9.1 15.5-15.5 3.5-7.2 3.5-19.8 0-27-3.1-6.4-9.1-12.4-15.5-15.5l-5-2.5-198.5-.2c-109.2 0-199.8.2-201.5.6zm0 128c-9 2.2-17.3 9-21.5 17.6-3.5 7.3-3.5 19.9 0 27 3.1 6.4 9.1 12.4 15.5 15.5l5 2.5h401l5-2.5c6.4-3.1 12.4-9.1 15.5-15.5 3.5-7.2 3.5-19.8 0-27-3.1-6.4-9.1-12.4-15.5-15.5l-5-2.5-198.5-.2c-109.2 0-199.8.2-201.5.6zM54 353.7c-14.1 4.9-22.9 18.2-21.8 32.6 1 11.5 7.9 21.6 18.3 26.7l5 2.5h401l5-2.5c6.4-3.1 12.4-9.1 15.5-15.5 3.5-7.2 3.5-19.8 0-27-3.1-6.4-9.1-12.4-15.5-15.5l-5-2.5-199-.2c-179-.2-199.5-.1-203.5 1.4z"/></svg>